<svg xmlns="http://www.w3.org/2000/svg" width="513.301" height="206.901" viewBox="0 0 513.301 206.901" fill="none">
  <path d="M 0 0 L 0 -1.5 L -1.5 -1.5 L -1.5 0 L 0 0 Z M 513.301 0 L 514.801 0 L 514.801 -1.5 L 513.301 -1.5 L 513.301 0 Z M 0 0 L -1.5 0 C -1.5 115.383 114.395 208.401 256.65 208.401 L 256.65 206.901 L 256.65 205.401 C 115.416 205.401 1.5 113.155 1.5 0 L 0 0 Z M 256.65 206.901 L 256.65 208.401 C 398.906 208.401 514.801 115.383 514.801 0 L 513.301 0 L 511.801 0 C 511.801 113.155 397.885 205.401 256.65 205.401 L 256.65 206.901 Z M 513.301 0 L 513.301 -1.5 L 0 -1.5 L 0 0 L 0 1.5 L 513.301 1.5 L 513.301 0 Z" fill="currentColor" fill-rule="nonzero"></path>
</svg>