<svg xmlns="http://www.w3.org/2000/svg" width="404.166" height="404.166" viewBox="0 0 404.166 404.166" fill="none">
  <path d="M 404.166 191.441 L 405.666 191.441 L 405.666 189.941 L 404.166 189.941 L 404.166 191.441 Z M 227.774 191.441 L 226.713 190.381 L 224.152 192.941 L 227.774 192.941 L 227.774 191.441 Z M 352.504 66.711 L 353.565 67.772 L 354.626 66.711 L 353.564 65.65 L 352.504 66.711 Z M 337.449 51.662 L 338.51 50.601 L 337.449 49.541 L 336.388 50.602 L 337.449 51.662 Z M 212.725 176.393 L 211.225 176.393 L 211.225 180.014 L 213.786 177.453 L 212.725 176.393 Z M 212.725 0 L 214.225 0 L 214.225 -1.5 L 212.725 -1.5 L 212.725 0 Z M 191.441 0 L 191.441 -1.5 L 189.941 -1.5 L 189.941 0 L 191.441 0 Z M 191.441 176.393 L 190.381 177.453 L 192.941 180.014 L 192.941 176.393 L 191.441 176.393 Z M 66.711 51.662 L 67.772 50.602 L 66.711 49.541 L 65.65 50.602 L 66.711 51.662 Z M 51.662 66.711 L 50.602 65.65 L 49.541 66.711 L 50.602 67.772 L 51.662 66.711 Z M 176.393 191.441 L 176.393 192.941 L 180.014 192.941 L 177.453 190.381 L 176.393 191.441 Z M 0 191.441 L 0 189.941 L -1.5 189.941 L -1.5 191.441 L 0 191.441 Z M 0 212.725 L -1.5 212.725 L -1.5 214.225 L 0 214.225 L 0 212.725 Z M 176.393 212.725 L 177.453 213.786 L 180.014 211.225 L 176.393 211.225 L 176.393 212.725 Z M 51.662 337.449 L 50.602 336.388 L 49.541 337.449 L 50.601 338.51 L 51.662 337.449 Z M 66.711 352.504 L 65.65 353.564 L 66.711 354.626 L 67.772 353.565 L 66.711 352.504 Z M 191.441 227.774 L 192.941 227.774 L 192.941 224.152 L 190.381 226.713 L 191.441 227.774 Z M 191.441 404.166 L 189.941 404.166 L 189.941 405.666 L 191.441 405.666 L 191.441 404.166 Z M 212.725 404.166 L 212.725 405.666 L 214.225 405.666 L 214.225 404.166 L 212.725 404.166 Z M 212.725 227.774 L 213.786 226.713 L 211.225 224.152 L 211.225 227.774 L 212.725 227.774 Z M 337.449 352.504 L 336.388 353.565 L 337.449 354.625 L 338.51 353.565 L 337.449 352.504 Z M 352.504 337.449 L 353.565 338.51 L 354.625 337.449 L 353.565 336.388 L 352.504 337.449 Z M 227.774 212.725 L 227.774 211.225 L 224.152 211.225 L 226.713 213.786 L 227.774 212.725 Z M 404.166 212.725 L 404.166 214.225 L 405.666 214.225 L 405.666 212.725 L 404.166 212.725 Z M 404.166 191.441 L 404.166 189.941 L 227.774 189.941 L 227.774 191.441 L 227.774 192.941 L 404.166 192.941 L 404.166 191.441 Z M 227.774 191.441 L 228.834 192.502 L 353.565 67.772 L 352.504 66.711 L 351.443 65.65 L 226.713 190.381 L 227.774 191.441 Z M 352.504 66.711 L 353.564 65.65 L 338.51 50.601 L 337.449 51.662 L 336.389 52.723 L 351.444 67.772 L 352.504 66.711 Z M 337.449 51.662 L 336.388 50.602 L 211.664 175.332 L 212.725 176.393 L 213.786 177.453 L 338.51 52.723 L 337.449 51.662 Z M 212.725 176.393 L 214.225 176.393 L 214.225 0 L 212.725 0 L 211.225 0 L 211.225 176.393 L 212.725 176.393 Z M 212.725 0 L 212.725 -1.5 L 191.441 -1.5 L 191.441 0 L 191.441 1.5 L 212.725 1.5 L 212.725 0 Z M 191.441 0 L 189.941 0 L 189.941 176.393 L 191.441 176.393 L 192.941 176.393 L 192.941 0 L 191.441 0 Z M 191.441 176.393 L 192.502 175.332 L 67.772 50.602 L 66.711 51.662 L 65.65 52.723 L 190.381 177.453 L 191.441 176.393 Z M 66.711 51.662 L 65.65 50.602 L 50.602 65.65 L 51.662 66.711 L 52.723 67.772 L 67.772 52.723 L 66.711 51.662 Z M 51.662 66.711 L 50.602 67.772 L 175.332 192.502 L 176.393 191.441 L 177.453 190.381 L 52.723 65.65 L 51.662 66.711 Z M 176.393 191.441 L 176.393 189.941 L 0 189.941 L 0 191.441 L 0 192.941 L 176.393 192.941 L 176.393 191.441 Z M 0 191.441 L -1.5 191.441 L -1.5 212.725 L 0 212.725 L 1.5 212.725 L 1.5 191.441 L 0 191.441 Z M 0 212.725 L 0 214.225 L 176.393 214.225 L 176.393 212.725 L 176.393 211.225 L 0 211.225 L 0 212.725 Z M 176.393 212.725 L 175.332 211.664 L 50.602 336.388 L 51.662 337.449 L 52.723 338.51 L 177.453 213.786 L 176.393 212.725 Z M 51.662 337.449 L 50.601 338.51 L 65.65 353.564 L 66.711 352.504 L 67.772 351.444 L 52.723 336.389 L 51.662 337.449 Z M 66.711 352.504 L 67.772 353.565 L 192.502 228.834 L 191.441 227.774 L 190.381 226.713 L 65.65 351.443 L 66.711 352.504 Z M 191.441 227.774 L 189.941 227.774 L 189.941 404.166 L 191.441 404.166 L 192.941 404.166 L 192.941 227.774 L 191.441 227.774 Z M 191.441 404.166 L 191.441 405.666 L 212.725 405.666 L 212.725 404.166 L 212.725 402.666 L 191.441 402.666 L 191.441 404.166 Z M 212.725 404.166 L 214.225 404.166 L 214.225 227.774 L 212.725 227.774 L 211.225 227.774 L 211.225 404.166 L 212.725 404.166 Z M 212.725 227.774 L 211.664 228.834 L 336.388 353.565 L 337.449 352.504 L 338.51 351.443 L 213.786 226.713 L 212.725 227.774 Z M 337.449 352.504 L 338.51 353.565 L 353.565 338.51 L 352.504 337.449 L 351.443 336.388 L 336.388 351.443 L 337.449 352.504 Z M 352.504 337.449 L 353.565 336.388 L 228.834 211.664 L 227.774 212.725 L 226.713 213.786 L 351.443 338.51 L 352.504 337.449 Z M 227.774 212.725 L 227.774 214.225 L 404.166 214.225 L 404.166 212.725 L 404.166 211.225 L 227.774 211.225 L 227.774 212.725 Z M 404.166 212.725 L 405.666 212.725 L 405.666 191.441 L 404.166 191.441 L 402.666 191.441 L 402.666 212.725 L 404.166 212.725 Z" fill="currentColor" fill-rule="nonzero"></path>
</svg>