<svg width="141" height="24" viewBox="0 0 141 24" fill="none" xmlns="http://www.w3.org/2000/svg">
<path d="M5.3578 1.19065V23.1866H-0.000204421V1.19065H5.3578ZM19.894 5.51465C21.9411 5.51465 23.5705 6.18309 24.782 7.51998C26.0145 8.83598 26.6307 10.6533 26.6307 12.972V23.1866H21.304V13.6926C21.304 12.5229 21.0011 11.6142 20.3953 10.9666C19.7896 10.3191 18.9749 9.99531 17.9513 9.99531C16.9278 9.99531 16.1131 10.3191 15.5073 10.9666C14.9016 11.6142 14.5987 12.5229 14.5987 13.6926V23.1866H9.24068V5.70265H14.5987V8.02131C15.1418 7.24842 15.8729 6.64265 16.792 6.20398C17.7111 5.74442 18.7451 5.51465 19.894 5.51465ZM136.39 23.4373C135.179 23.4373 134.207 23.1135 133.476 22.466C132.745 21.8184 132.379 21.0038 132.379 20.022C132.379 19.0193 132.745 18.1942 133.476 17.5466C134.207 16.8782 135.179 16.544 136.39 16.544C137.581 16.544 138.542 16.8782 139.273 17.5466C140.004 18.1942 140.369 19.0193 140.369 20.022C140.369 21.0038 140.004 21.8184 139.273 22.466C138.542 23.1135 137.581 23.4373 136.39 23.4373Z" fill="#7C3AED"></path>
<path d="M48.872 1.34731L40.6313 23.1866H37.3413L29.1006 1.34731H32.14L39.002 20.1786L45.864 1.34731H48.872ZM50.9331 14.5386C50.9331 12.784 51.2882 11.2486 51.9984 9.93265C52.7087 8.59576 53.68 7.56176 54.9124 6.83065C56.1658 6.09953 57.5549 5.73398 59.0798 5.73398C60.5838 5.73398 61.8893 6.05776 62.9964 6.70531C64.1036 7.35287 64.9287 8.16753 65.4718 9.14931V6.01598H68.3544V23.1866H65.4718V19.9906C64.9078 20.9933 64.0618 21.8289 62.9338 22.4973C61.8267 23.1449 60.5316 23.4686 59.0484 23.4686C57.5236 23.4686 56.1449 23.0926 54.9124 22.3406C53.68 21.5886 52.7087 20.5338 51.9984 19.176C51.2882 17.8182 50.9331 16.2724 50.9331 14.5386ZM65.4718 14.57C65.4718 13.2749 65.2107 12.1469 64.6884 11.186C64.1662 10.2251 63.456 9.49398 62.5578 8.99265C61.6804 8.47042 60.7091 8.20931 59.6438 8.20931C58.5784 8.20931 57.6071 8.45998 56.7298 8.96131C55.8524 9.46265 55.1527 10.1938 54.6304 11.1546C54.1082 12.1155 53.8471 13.2435 53.8471 14.5386C53.8471 15.8546 54.1082 17.0035 54.6304 17.9853C55.1527 18.9462 55.8524 19.6878 56.7298 20.21C57.6071 20.7113 58.5784 20.962 59.6438 20.962C60.7091 20.962 61.6804 20.7113 62.5578 20.21C63.456 19.6878 64.1662 18.9462 64.6884 17.9853C65.2107 17.0035 65.4718 15.8651 65.4718 14.57ZM76.0243 -2.05167e-05V23.1866H73.1729V-2.05167e-05H76.0243ZM79.8185 14.5386C79.8185 12.784 80.1736 11.2486 80.8839 9.93265C81.5941 8.59576 82.5654 7.56176 83.7979 6.83065C85.0512 6.09953 86.4507 5.73398 87.9965 5.73398C89.3334 5.73398 90.5763 6.04731 91.7252 6.67398C92.8741 7.27976 93.7514 8.08398 94.3572 9.08665V-2.05167e-05H97.2399V23.1866H94.3572V19.9593C93.7932 20.9829 92.9576 21.8289 91.8505 22.4973C90.7434 23.1449 89.4483 23.4686 87.9652 23.4686C86.4403 23.4686 85.0512 23.0926 83.7979 22.3406C82.5654 21.5886 81.5941 20.5338 80.8839 19.176C80.1736 17.8182 79.8185 16.2724 79.8185 14.5386ZM94.3572 14.57C94.3572 13.2749 94.0961 12.1469 93.5739 11.186C93.0516 10.2251 92.3414 9.49398 91.4432 8.99265C90.5659 8.47042 89.5945 8.20931 88.5292 8.20931C87.4639 8.20931 86.4925 8.45998 85.6152 8.96131C84.7379 9.46265 84.0381 10.1938 83.5159 11.1546C82.9936 12.1155 82.7325 13.2435 82.7325 14.5386C82.7325 15.8546 82.9936 17.0035 83.5159 17.9853C84.0381 18.9462 84.7379 19.6878 85.6152 20.21C86.4925 20.7113 87.4639 20.962 88.5292 20.962C89.5945 20.962 90.5659 20.7113 91.4432 20.21C92.3414 19.6878 93.0516 18.9462 93.5739 17.9853C94.0961 17.0035 94.3572 15.8651 94.3572 14.57ZM117.286 6.01598V23.1866H114.435V20.6486C113.892 21.526 113.129 22.2153 112.148 22.7166C111.187 23.1971 110.121 23.4373 108.952 23.4373C107.615 23.4373 106.414 23.1658 105.348 22.6226C104.283 22.0586 103.437 21.2231 102.81 20.116C102.205 19.0089 101.902 17.6615 101.902 16.074V6.01598H104.722V15.698C104.722 17.39 105.15 18.6955 106.006 19.6146C106.863 20.5129 108.033 20.962 109.516 20.962C111.041 20.962 112.242 20.492 113.119 19.552C113.996 18.612 114.435 17.2438 114.435 15.4473V6.01598H117.286ZM124.952 8.80465C125.453 7.82287 126.164 7.06042 127.083 6.51731C128.023 5.9742 129.161 5.70265 130.498 5.70265V8.64798H129.746C126.55 8.64798 124.952 10.3818 124.952 13.8493V23.1866H122.101V6.01598H124.952V8.80465Z" fill="#2A2A2A"></path>
</svg>